<svg width="500" height="750" viewBox="0 0 500 750" fill="none" xmlns="http://www.w3.org/2000/svg">
<g id="Full Screen">
<g id="Group 32">
<g id="Group 28">
<rect id="Rectangle 78" x="5.00049" y="0.0193634" width="61.4359" height="145.217" rx="30.7179" fill="white"/>
<rect id="Rectangle 79" x="5.00049" y="60.1947" width="60.1757" height="148.258" rx="30.0879" transform="rotate(-90 5.00049 60.1947)" fill="white"/>
</g>
<g id="Group 29">
<rect id="Rectangle 78_2" x="494.387" y="1.52588e-05" width="60.1757" height="148.258" rx="30.0879" transform="rotate(90 494.387 1.52588e-05)" fill="white"/>
<rect id="Rectangle 79_2" x="432.95" y="7.62939e-06" width="61.4359" height="145.217" rx="30.718" fill="white"/>
</g>
<g id="Group 31">
<rect id="Rectangle 78_3" x="495" y="367.532" width="61.4359" height="145.217" rx="30.718" transform="rotate(-180 495 367.532)" fill="white"/>
<rect id="Rectangle 79_3" x="495" y="307.357" width="60.1758" height="148.258" rx="30.0879" transform="rotate(90 495 307.357)" fill="white"/>
</g>
<g id="Group 30">
<rect id="Rectangle 78_4" x="5.00049" y="367.532" width="60.1757" height="148.258" rx="30.0879" transform="rotate(-90 5.00049 367.532)" fill="white"/>
<rect id="Rectangle 79_4" x="66.436" y="367.532" width="61.4359" height="145.217" rx="30.7179" transform="rotate(180 66.436 367.532)" fill="white"/>
</g>
</g>
<g id="Group 33">
<g id="Group 28_2">
<rect id="Rectangle 78_5" x="153.26" y="527.237" width="61.4362" height="145.218" rx="30.7181" transform="rotate(-180 153.26 527.237)" fill="white"/>
<rect id="Rectangle 79_5" x="153.261" y="467.061" width="60.176" height="148.259" rx="30.088" transform="rotate(90 153.261 467.061)" fill="white"/>
</g>
<g id="Group 29_2">
<rect id="Rectangle 78_6" x="346.13" y="527.218" width="60.176" height="148.259" rx="30.088" transform="rotate(-90 346.13 527.218)" fill="white"/>
<rect id="Rectangle 79_6" x="407.565" y="527.218" width="61.4363" height="145.218" rx="30.7181" transform="rotate(180 407.565 527.218)" fill="white"/>
</g>
<g id="Group 31_2">
<rect id="Rectangle 78_7" x="346.742" y="604.316" width="61.4362" height="145.218" rx="30.7181" fill="white"/>
<rect id="Rectangle 79_7" x="346.741" y="664.492" width="60.1761" height="148.259" rx="30.0881" transform="rotate(-90 346.741 664.492)" fill="white"/>
</g>
<g id="Group 30_2">
<rect id="Rectangle 78_8" x="153.259" y="604.316" width="60.176" height="148.259" rx="30.088" transform="rotate(90 153.259 604.316)" fill="white"/>
<rect id="Rectangle 79_8" x="91.8232" y="604.316" width="61.4362" height="145.218" rx="30.7181" fill="white"/>
</g>
</g>
</g>
</svg>
