<svg width="1046" height="744" viewBox="0 0 1046 744" fill="none" xmlns="http://www.w3.org/2000/svg">
<path d="M799.064 590.836V739.475H957.238V676.206H883.833V653.478H948.638V593.28H883.833V571.166H954.781V507.897H821.574V591.879L799.064 590.836Z" fill="white"/>
<path d="M641.549 582.902L682.703 580.995V739.475H766.857V580.995L813.235 583.145V507.897H641.139C647.317 510.581 653.385 513.729 659.351 517.357L665.295 520.972L641.549 582.902Z" fill="white"/>
<path d="M547.591 742.529C552.57 742.946 557.478 743.161 562.263 743.161C612.326 743.161 662.696 715.826 662.696 660.542C662.696 621.229 636.897 602.187 601.269 594.201L582.227 589.901C581.525 589.734 580.776 589.571 579.998 589.401C573.628 588.011 565.335 586.201 565.335 578.537C565.335 569.016 576.084 566.252 583.456 566.252C601.577 566.252 617.855 573.93 632.29 583.759L655.018 524.482C632.29 510.661 608.026 504.211 581.613 504.211C539.016 504.211 496.639 526.177 484.574 566.207L511.221 640.765C520.224 645.892 530.661 649.37 541.686 651.328L558.578 654.399C559.32 654.548 560.094 654.69 560.887 654.837C568.291 656.202 577.313 657.866 577.313 667.299C577.313 677.741 564.106 681.12 555.814 681.12C544.125 681.12 532.885 677.645 522.499 672.322L547.591 742.529Z" fill="white"/>
<path fill-rule="evenodd" clip-rule="evenodd" d="M292.124 739.475H370.362L377.119 710.605H440.696L448.374 739.475H537.443L454.824 507.897H373.822L292.124 739.475ZM407.525 584.987L392.169 655.628H425.953L416.125 614.779C413.784 605.414 412.279 595.77 410.814 586.378C410.741 585.914 410.669 585.45 410.597 584.987H407.525Z" fill="white"/>
<path d="M0.411865 507.897L81.495 739.475H153.057L176.399 648.564C179.163 637.2 179.777 625.529 180.699 613.551H183.463L209.877 739.475H283.281L364.979 507.897H277.446L254.104 605.258C251.032 618.465 249.497 632.593 248.268 646.107H246.425L214.791 507.897H150.293L125.722 603.415C122.037 617.236 120.194 631.979 118.658 646.107H116.815L87.6376 507.897H0.411865Z" fill="white"/>
<path fill-rule="evenodd" clip-rule="evenodd" d="M688.062 429.624L688.062 492.13H770.374V417.804H771.91L808.766 492.13H905.82L855.45 416.882C851.318 410.822 846.691 407.232 842.679 404.119C842.218 403.761 841.765 403.41 841.322 403.061V401.219C872.649 390.776 886.163 376.034 886.163 341.021C886.163 282.665 841.936 260.552 789.723 260.552H691.591V397.533C691.591 409.138 690.397 419.842 688.062 429.624ZM776.824 323.821H770.374V363.134H776.209C790.03 363.134 803.851 360.984 803.851 343.785C803.851 325.971 791.259 323.821 776.824 323.821Z" fill="white"/>
<path d="M491.636 465.675C510.352 486.131 539.672 495.816 576.062 495.816C640.867 495.816 683.251 465.102 683.251 397.533V260.552H599.097V389.548C599.097 407.668 598.483 423.639 576.062 423.639C553.641 423.639 553.027 407.668 553.027 389.548V260.552H468.873V270.211C503.703 292.057 526.832 329.316 526.832 376.955C526.832 413.631 513.602 443.876 491.636 465.675Z" fill="white"/>
<path d="M93.342 260.552L174.118 392.312V492.13H256.43V392.312L335.67 260.552H241.073L224.488 299.251C221.416 306.315 219.267 313.686 216.809 321.057H214.352L188.553 260.552H93.342Z" fill="white"/>
<path fill-rule="evenodd" clip-rule="evenodd" d="M264.769 402.504C276.379 461.368 328.291 495.815 390.418 495.815C461.058 495.815 518.492 451.281 518.492 376.955C518.492 304.164 460.751 256.866 390.418 256.866C373.684 256.866 357.663 259.543 342.963 264.604L264.769 394.626V402.504ZM433.724 378.183C433.724 353.613 417.138 333.035 390.418 333.035C363.697 333.035 347.112 353.613 347.112 378.183C347.112 404.597 364.926 422.718 390.418 422.718C415.91 422.718 433.724 404.597 433.724 378.183Z" fill="white"/>
<path d="M745.973 199.596L761.795 244.785H833.357L856.699 153.873C859.144 143.825 859.907 133.536 860.688 123.007C860.79 121.629 860.893 120.247 860.999 118.86H863.763L890.177 244.785H963.582L1045.28 13.2065H957.746L934.404 110.568C931.333 123.774 929.797 137.903 928.569 151.416H926.726L895.091 13.2065H830.593L806.022 108.725C802.337 122.546 800.494 137.288 798.958 151.416H797.116L767.938 13.2065H689.452C734.322 32.5168 765.852 73.9885 765.852 129.61C765.852 156.725 758.62 180.325 745.973 199.596Z" fill="white"/>
<path fill-rule="evenodd" clip-rule="evenodd" d="M593.457 244.377C604.875 247.078 616.95 248.47 629.438 248.47C700.078 248.47 757.512 203.936 757.512 129.61C757.512 56.8192 699.771 9.52075 629.438 9.52075C585.144 9.52075 545.845 28.2794 522.817 60.3501V162.119H593.457V244.377ZM672.743 130.838C672.743 106.268 656.158 85.6897 629.438 85.6897C602.717 85.6897 586.132 106.268 586.132 130.838C586.132 157.252 603.946 175.373 629.438 175.373C654.93 175.373 672.743 157.252 672.743 130.838Z" fill="white"/>
<path d="M479.762 244.785H585.118V170.459H514.478V13.2065H430.323V162.119H479.762V244.785Z" fill="white"/>
<path d="M316.628 231.314V244.785H471.423V170.459H400.782V13.2065H316.628V27.7703C347.372 50.0758 367.322 85.3665 367.322 129.61C367.322 169.084 351.996 201.108 326.948 223.17C323.662 226.065 320.217 228.78 316.628 231.314Z" fill="white"/>
<path fill-rule="evenodd" clip-rule="evenodd" d="M106.239 159.673C119.559 215.781 170.386 248.47 230.908 248.47C301.548 248.47 358.982 203.936 358.982 129.61C358.982 56.8192 301.241 9.52075 230.908 9.52075C207.439 9.52075 185.371 14.7873 166.384 24.5102V75.519H115.132C113.947 77.891 112.84 80.3176 111.814 82.7971H157.784V159.673H106.239ZM274.214 130.838C274.214 106.268 257.628 85.6897 230.908 85.6897C204.187 85.6897 187.602 106.268 187.602 130.838C187.602 157.252 205.416 175.373 230.908 175.373C256.4 175.373 274.214 157.252 274.214 130.838Z" fill="white"/>
<path d="M2.94214 232.418H87.7108V151.335H149.445V91.1364H87.7108V67.1801H158.044V0.839355H2.94214V232.418Z" fill="white"/>
</svg>
