<svg width="1080" height="750" viewBox="0 0 1080 750" fill="none" xmlns="http://www.w3.org/2000/svg">
<path d="M697.712 16.2065L778.795 247.785H850.357L873.699 156.873C876.464 145.51 877.078 133.838 877.999 121.86H880.763L907.177 247.785H980.582L1062.28 16.2065H974.746L951.404 113.568C948.333 126.774 946.797 140.903 945.568 154.416H943.726L912.091 16.2065H847.593L823.022 111.725C819.337 125.546 817.494 140.288 815.958 154.416H814.116L784.938 16.2065H697.712Z" fill="white"/>
<path fill-rule="evenodd" clip-rule="evenodd" d="M692.3 12.3672H788.051L814.269 136.559C815.496 127.892 817.065 119.168 819.309 110.752L844.617 12.3672H915.151L943.578 136.562C944.575 128.535 945.857 120.472 947.665 112.698L947.671 112.672L971.719 12.3672H1067.7L983.298 251.624H904.059L880.453 139.082C879.818 145.349 878.931 151.608 877.43 157.781L877.424 157.804L853.335 251.624H776.072L692.3 12.3672ZM877.694 125.927C877.78 124.771 877.866 123.611 877.954 122.449C877.969 122.253 877.984 122.057 877.999 121.86H880.763L907.177 247.785H980.582L1062.28 16.2063H974.746L951.404 113.567C948.82 124.678 947.323 136.44 946.182 147.94C945.981 149.965 945.791 151.982 945.608 153.985C945.595 154.129 945.582 154.273 945.569 154.416H943.726L912.091 16.2063H847.593L823.022 111.725C819.893 123.459 818.093 135.857 816.68 147.979C816.445 150.001 816.22 152.016 816.002 154.018C815.987 154.151 815.973 154.283 815.958 154.416H814.116L784.938 16.2063H697.712L778.795 247.785H850.357L873.699 156.873C876.144 146.825 876.907 136.536 877.688 126.007C877.69 125.98 877.692 125.953 877.694 125.927Z" fill="#FD642D"/>
<path d="M646.438 12.5208C576.104 12.5208 518.363 59.8192 518.363 132.61C518.363 206.936 575.797 251.47 646.438 251.47C717.078 251.47 774.512 206.936 774.512 132.61C774.512 59.8192 716.771 12.5208 646.438 12.5208ZM646.438 88.6897C673.158 88.6897 689.743 109.268 689.743 133.838C689.743 160.252 671.93 178.373 646.438 178.373C620.946 178.373 603.132 160.252 603.132 133.838C603.132 109.268 619.717 88.6897 646.438 88.6897Z" fill="white"/>
<path fill-rule="evenodd" clip-rule="evenodd" d="M514.524 132.61C514.524 57.3319 574.371 8.68188 646.438 8.68188C718.505 8.68188 778.352 57.3319 778.352 132.61C778.352 170.837 763.548 201.615 739.503 222.794C715.511 243.926 682.546 255.31 646.438 255.31C610.33 255.31 577.365 243.926 553.373 222.794C529.328 201.615 514.524 170.837 514.524 132.61ZM685.905 133.839C685.905 111.045 670.71 92.5292 646.438 92.5292C622.166 92.5292 606.971 111.045 606.971 133.839C606.971 146.166 611.114 156.298 617.974 163.33C624.827 170.356 634.631 174.534 646.438 174.534C658.245 174.534 668.049 170.356 674.902 163.33C681.762 156.298 685.905 146.166 685.905 133.839ZM518.364 132.61C518.364 59.8195 576.105 12.521 646.438 12.521C716.771 12.521 774.512 59.8195 774.512 132.61C774.512 206.936 717.079 251.47 646.438 251.47C575.797 251.47 518.364 206.936 518.364 132.61ZM689.744 133.839C689.744 109.268 673.159 88.69 646.438 88.69C619.717 88.69 603.132 109.268 603.132 133.839C603.132 160.252 620.946 178.373 646.438 178.373C671.93 178.373 689.744 160.252 689.744 133.839Z" fill="#FD642D"/>
<path d="M447.323 247.785H602.118V173.459H531.478V16.2065H447.323V247.785Z" fill="white"/>
<path fill-rule="evenodd" clip-rule="evenodd" d="M443.484 251.624V12.3672H535.317V169.619H605.957V251.624H443.484ZM602.118 173.458V247.785H447.323V16.2063H531.477V173.458H602.118Z" fill="#FD642D"/>
<path d="M333.628 247.785H488.423V173.459H417.782V16.2065H333.628V247.785Z" fill="white"/>
<path fill-rule="evenodd" clip-rule="evenodd" d="M329.788 251.624V12.3672H421.621V169.619H492.262V251.624H329.788ZM488.423 173.458V247.785H333.627V16.2063H417.782V173.458H488.423Z" fill="#FD642D"/>
<path d="M110.342 263.552L191.118 395.312V495.13H273.43V395.312L352.67 263.552H258.073L241.488 302.251C238.416 309.315 236.267 316.686 233.809 324.057H231.352L205.553 263.552H110.342Z" fill="white"/>
<path fill-rule="evenodd" clip-rule="evenodd" d="M103.485 259.712H208.09L232.265 316.41C233.958 311.191 235.732 305.861 237.963 300.728C237.964 300.725 237.966 300.722 237.967 300.72L255.541 259.712H359.459L277.269 396.377V498.969H187.279V396.395L103.485 259.712ZM191.118 395.312V495.13H273.43V395.312L352.67 263.552H258.073L241.488 302.25C239.127 307.681 237.31 313.292 235.48 318.946C235.174 319.892 234.867 320.839 234.558 321.786C234.443 322.137 234.329 322.487 234.213 322.837C234.08 323.243 233.945 323.65 233.809 324.057H231.352L205.553 263.552H110.342L191.118 395.312Z" fill="#FD642D"/>
<path d="M407.418 259.866C337.085 259.866 279.344 307.164 279.344 379.955C279.344 454.281 336.777 498.815 407.418 498.815C478.059 498.815 535.492 454.281 535.492 379.955C535.492 307.164 477.751 259.866 407.418 259.866ZM407.418 336.035C434.139 336.035 450.724 356.613 450.724 381.183C450.724 407.597 432.91 425.718 407.418 425.718C381.926 425.718 364.112 407.597 364.112 381.183C364.112 356.613 380.697 336.035 407.418 336.035Z" fill="white"/>
<path fill-rule="evenodd" clip-rule="evenodd" d="M275.505 379.955C275.505 304.677 335.352 256.027 407.418 256.027C479.485 256.027 539.332 304.677 539.332 379.955C539.332 418.182 524.528 448.96 500.483 470.139C476.491 491.271 443.527 502.655 407.418 502.655C371.31 502.655 338.345 491.271 314.353 470.139C290.309 448.96 275.505 418.182 275.505 379.955ZM446.885 381.184C446.885 358.389 431.69 339.874 407.418 339.874C383.146 339.874 367.952 358.389 367.952 381.184C367.952 393.511 372.094 403.643 378.954 410.675C385.807 417.701 395.612 421.879 407.418 421.879C419.225 421.879 429.029 417.701 435.882 410.675C442.742 403.643 446.885 393.511 446.885 381.184ZM279.344 379.955C279.344 307.164 337.085 259.866 407.418 259.866C477.752 259.866 535.493 307.164 535.493 379.955C535.493 454.281 478.059 498.815 407.418 498.815C336.778 498.815 279.344 454.281 279.344 379.955ZM450.724 381.184C450.724 356.613 434.139 336.035 407.418 336.035C380.698 336.035 364.113 356.613 364.113 381.184C364.113 407.597 381.926 425.718 407.418 425.718C432.91 425.718 450.724 407.597 450.724 381.184Z" fill="#FD642D"/>
<path d="M616.097 263.552V392.548C616.097 410.668 615.483 426.639 593.062 426.639C570.641 426.639 570.027 410.668 570.027 392.548V263.552H485.873V400.533C485.873 468.102 528.257 498.816 593.062 498.816C657.867 498.816 700.251 468.102 700.251 400.533V263.552H616.097Z" fill="white"/>
<path fill-rule="evenodd" clip-rule="evenodd" d="M612.258 259.712H704.091V400.533C704.091 435.158 693.198 460.903 673.466 477.92C653.832 494.853 626.008 502.655 593.062 502.655C560.117 502.655 532.293 494.853 512.658 477.92C492.927 460.903 482.034 435.158 482.034 400.533V259.712H573.866V392.547C573.866 401.838 574.091 409.42 576.608 414.749C577.789 417.247 579.447 419.161 581.866 420.503C584.343 421.877 587.891 422.8 593.062 422.8C598.233 422.8 601.781 421.877 604.258 420.503C606.678 419.161 608.336 417.247 609.516 414.749C612.034 409.42 612.258 401.838 612.258 392.547V259.712ZM616.097 392.547C616.097 410.668 615.483 426.639 593.062 426.639C570.642 426.639 570.027 410.668 570.027 392.547V263.552H485.873V400.533C485.873 468.102 528.257 498.815 593.062 498.815C657.867 498.815 700.252 468.102 700.252 400.533V263.552H616.097V392.547Z" fill="#FD642D"/>
<path d="M705.062 495.13H787.374V420.804H788.91L825.765 495.13H922.82L872.45 419.882C867.843 413.125 862.621 409.44 858.322 406.061V404.219C889.649 393.776 903.163 379.034 903.163 344.021C903.163 285.665 858.936 263.552 806.723 263.552H705.062V495.13ZM787.374 326.821H793.824C808.259 326.821 820.851 328.971 820.851 346.785C820.851 363.984 807.03 366.134 793.209 366.134H787.374V326.821Z" fill="white"/>
<path fill-rule="evenodd" clip-rule="evenodd" d="M701.223 498.969V259.712H806.724C833.285 259.712 858.305 265.324 876.785 278.801C895.453 292.415 907.002 313.737 907.002 344.02C907.002 361.992 903.536 375.397 895.52 385.692C888.406 394.827 878.05 401.07 864.581 406.085C868.076 408.893 872.039 412.464 875.622 417.719L875.64 417.747L930.01 498.969H823.384L791.213 434.091V498.969H701.223ZM787.374 420.804H788.91L825.766 495.13H922.82L872.45 419.882C868.53 414.133 864.166 410.608 860.303 407.603C860.093 407.44 859.886 407.279 859.679 407.119C859.502 406.982 859.327 406.845 859.152 406.71C858.872 406.492 858.595 406.276 858.322 406.061V404.218C858.989 403.996 859.648 403.772 860.299 403.546C860.539 403.462 860.777 403.378 861.015 403.294C890.426 392.9 903.163 378.013 903.163 344.02C903.163 285.665 858.936 263.552 806.724 263.552H705.063V495.13H787.374V420.804ZM793.824 330.66H791.213V362.295H793.21C800.102 362.295 806.167 361.72 810.446 359.501C812.488 358.442 814.059 357.039 815.151 355.145C816.255 353.232 817.013 350.57 817.013 346.785C817.013 342.771 816.302 339.943 815.252 337.92C814.223 335.939 812.762 334.525 810.88 333.475C806.889 331.247 801.061 330.66 793.824 330.66ZM787.374 326.821V366.134H793.21C807.031 366.134 820.852 363.984 820.852 346.785C820.852 328.971 808.259 326.821 793.824 326.821H787.374Z" fill="#FD642D"/>
<path d="M247.908 12.5208C177.574 12.5208 119.833 59.8192 119.833 132.61C119.833 206.936 177.267 251.47 247.908 251.47C318.549 251.47 375.982 206.936 375.982 132.61C375.982 59.8192 318.241 12.5208 247.908 12.5208ZM247.908 88.6897C274.629 88.6897 291.214 109.268 291.214 133.838C291.214 160.252 273.4 178.373 247.908 178.373C222.416 178.373 204.602 160.252 204.602 133.838C204.602 109.268 221.187 88.6897 247.908 88.6897Z" fill="white"/>
<path fill-rule="evenodd" clip-rule="evenodd" d="M115.995 132.61C115.995 57.3319 175.842 8.68188 247.908 8.68188C319.975 8.68188 379.822 57.3319 379.822 132.61C379.822 170.837 365.018 201.615 340.973 222.794C316.981 243.926 284.017 255.31 247.908 255.31C211.8 255.31 178.836 243.926 154.843 222.794C130.799 201.615 115.995 170.837 115.995 132.61ZM287.375 133.839C287.375 111.045 272.181 92.5292 247.908 92.5292C223.636 92.5292 208.442 111.045 208.442 133.839C208.442 146.166 212.585 156.298 219.444 163.33C226.298 170.356 236.102 174.534 247.908 174.534C259.715 174.534 269.519 170.356 276.373 163.33C283.232 156.298 287.375 146.166 287.375 133.839ZM119.834 132.61C119.834 59.8195 177.575 12.521 247.908 12.521C318.242 12.521 375.983 59.8195 375.983 132.61C375.983 206.936 318.549 251.47 247.908 251.47C177.268 251.47 119.834 206.936 119.834 132.61ZM291.214 133.839C291.214 109.268 274.629 88.69 247.908 88.69C221.188 88.69 204.603 109.268 204.603 133.839C204.603 160.252 222.416 178.373 247.908 178.373C273.401 178.373 291.214 160.252 291.214 133.839Z" fill="#FD642D"/>
<path d="M19.9421 235.418H104.711V154.334H166.445V94.1364H104.711V70.1801H175.044V3.83936H19.9421V235.418Z" fill="white"/>
<path fill-rule="evenodd" clip-rule="evenodd" d="M16.1033 239.257V0H178.884V74.019H108.55V90.2971H170.284V158.173H108.55V239.257H16.1033ZM104.711 235.417H19.9424V3.83916H175.045V70.1799H104.711V94.1362H166.445V154.334H104.711V235.417Z" fill="#FD642D"/>
<path d="M17.4119 510.897L98.495 742.475H170.057L193.399 651.564C196.163 640.2 196.777 628.529 197.699 616.551H200.463L226.877 742.475H300.281L381.979 510.897H294.446L271.104 608.258C268.032 621.465 266.497 635.593 265.268 649.107H263.425L231.791 510.897H167.293L142.722 606.415C139.037 620.236 137.194 634.979 135.658 649.107H133.815L104.638 510.897H17.4119Z" fill="white"/>
<path fill-rule="evenodd" clip-rule="evenodd" d="M12 507.058H107.751L133.969 631.249C135.196 622.583 136.765 613.859 139.008 605.442L164.316 507.058H234.85L263.277 631.253C264.275 623.225 265.557 615.162 267.364 607.388L267.37 607.363L291.418 507.058H387.404L302.998 746.314H223.759L200.153 633.773C199.517 640.04 198.631 646.299 197.129 652.471L197.124 652.495L173.035 746.314H95.7715L12 507.058ZM197.393 620.617C197.479 619.461 197.565 618.302 197.654 617.14C197.669 616.943 197.684 616.747 197.699 616.551H200.463L226.877 742.475H300.281L381.979 510.897H294.446L271.104 608.258C268.52 619.368 267.023 631.13 265.881 642.63C265.68 644.655 265.49 646.672 265.307 648.676C265.294 648.819 265.281 648.963 265.268 649.107H263.425L231.791 510.897H167.293L142.722 606.415C139.593 618.149 137.792 630.547 136.38 642.669C136.145 644.691 135.92 646.706 135.701 648.708C135.687 648.841 135.673 648.974 135.658 649.107H133.815L104.638 510.897H17.4119L98.495 742.475H170.057L193.399 651.564C195.843 641.515 196.607 631.226 197.388 620.697C197.39 620.671 197.392 620.644 197.393 620.617Z" fill="#FD642D"/>
<path d="M394.119 713.605H457.696L465.374 742.475H554.443L471.824 510.897H378.763L298.294 742.475H387.362L394.119 713.605ZM409.169 658.628L424.525 587.987H427.597C429.132 597.816 430.668 607.951 433.125 617.779L442.953 658.628H409.169Z" fill="white"/>
<path fill-rule="evenodd" clip-rule="evenodd" d="M465.374 742.475L457.695 713.605H394.119L387.362 742.475H298.293L378.762 510.897H471.823L554.442 742.475H465.374ZM397.163 717.444L390.406 746.314H292.895L376.032 507.058H474.53L559.888 746.314H462.422L454.744 717.444H397.163ZM409.168 658.628H442.953L433.125 617.779C430.859 608.714 429.376 599.388 427.955 590.283C427.908 589.981 427.861 589.68 427.814 589.378C427.777 589.145 427.741 588.911 427.704 588.678C427.668 588.448 427.632 588.217 427.596 587.987H424.525L409.168 658.628ZM413.932 654.789H438.081L429.4 618.71C429.399 618.705 429.398 618.699 429.396 618.694C427.897 612.696 426.737 606.595 425.719 600.567L413.932 654.789Z" fill="#FD642D"/>
<path d="M490.195 724.968C516.301 738.175 550.086 746.161 579.263 746.161C629.326 746.161 679.696 718.826 679.696 663.542C679.696 624.229 653.897 605.187 618.269 597.201L599.227 592.901C592.777 591.366 582.335 590.137 582.335 581.537C582.335 572.016 593.084 569.252 600.456 569.252C618.576 569.252 634.854 576.93 649.29 586.759L672.018 527.482C649.29 513.661 625.026 507.211 598.613 507.211C548.243 507.211 498.18 537.924 498.18 592.901C498.18 629.143 525.822 648.492 558.685 654.328L575.578 657.399C583.256 658.935 594.313 659.856 594.313 670.299C594.313 680.741 581.106 684.12 572.814 684.12C553.464 684.12 535.343 674.599 520.294 662.928L515.994 659.549L490.195 724.968Z" fill="white"/>
<path fill-rule="evenodd" clip-rule="evenodd" d="M485.34 726.815L514.313 653.346L522.647 659.894C522.65 659.897 522.653 659.899 522.656 659.901C537.414 671.344 554.703 680.281 572.814 680.281C576.554 680.281 581.305 679.501 584.968 677.686C588.572 675.9 590.474 673.516 590.474 670.299C590.474 668.413 589.991 667.213 589.368 666.363C588.71 665.464 587.689 664.678 586.209 663.992C583.69 662.823 580.685 662.265 577.43 661.661C576.588 661.504 575.729 661.345 574.858 661.171L558.014 658.108C558.012 658.108 558.009 658.107 558.006 658.107C541.09 655.102 525.22 648.573 513.515 637.848C501.716 627.034 494.341 612.115 494.341 592.902C494.341 564.11 507.502 541.608 527.159 526.403C546.734 511.263 572.699 503.372 598.613 503.372C625.697 503.372 650.656 509.999 674.012 524.202L676.749 525.866L651.138 592.662L647.129 589.932C632.985 580.302 617.473 573.092 600.456 573.092C597.14 573.092 593.282 573.73 590.406 575.229C587.688 576.645 586.174 578.589 586.174 581.538C586.174 582.836 586.542 583.674 587.064 584.326C587.644 585.05 588.58 585.742 589.969 586.382C592.225 587.421 594.827 587.991 597.55 588.588C598.389 588.772 599.239 588.958 600.094 589.162C600.102 589.163 600.109 589.165 600.116 589.167L619.109 593.455C619.11 593.455 619.109 593.455 619.109 593.455C637.307 597.534 653.427 604.524 665.029 615.88C676.738 627.342 683.535 642.953 683.535 663.542C683.535 692.517 670.267 714.283 650.515 728.685C630.877 743.003 604.93 750 579.263 750C549.489 750 515.11 741.875 488.462 728.395L485.34 726.815ZM618.269 597.201L599.227 592.902C598.525 592.734 597.776 592.571 596.998 592.401C590.628 591.011 582.335 589.202 582.335 581.538C582.335 572.017 593.084 569.252 600.456 569.252C617.218 569.252 632.403 575.822 646.011 584.586C647.114 585.297 648.207 586.022 649.29 586.759L672.018 527.482C649.29 513.661 625.026 507.211 598.613 507.211C548.243 507.211 498.18 537.925 498.18 592.902C498.18 629.143 525.822 648.493 558.686 654.328L575.578 657.4C576.32 657.548 577.094 657.691 577.887 657.837C585.291 659.202 594.313 660.866 594.313 670.299C594.313 680.742 581.106 684.12 572.814 684.12C553.464 684.12 535.343 674.599 520.294 662.928L515.994 659.549L490.195 724.969C516.301 738.175 550.086 746.161 579.263 746.161C629.326 746.161 679.696 718.826 679.696 663.542C679.696 624.229 653.897 605.187 618.269 597.201Z" fill="#FD642D"/>
<path d="M653.326 586.145L699.703 583.995V742.475H783.857V583.995L830.234 586.145V510.897H653.326V586.145Z" fill="white"/>
<path fill-rule="evenodd" clip-rule="evenodd" d="M649.487 590.166V507.058H834.074V590.166L787.697 588.016V746.314H695.864V588.016L649.487 590.166ZM699.703 583.994V742.475H783.857V583.994L830.235 586.144V510.897H653.326V586.144L699.703 583.994Z" fill="#FD642D"/>
<path d="M816.064 742.475H974.238V679.206H900.833V656.478H965.638V596.28H900.833V574.166H971.781V510.897H816.064V742.475Z" fill="white"/>
<path fill-rule="evenodd" clip-rule="evenodd" d="M812.225 746.314V507.058H975.62V578.005H904.672V592.441H969.477V660.317H904.672V675.366H978.077V746.314H812.225ZM974.238 679.206V742.475H816.064V510.897H971.781V574.166H900.833V596.28H965.638V656.478H900.833V679.206H974.238Z" fill="#FD642D"/>
</svg>
