<svg width="1440" height="1024" viewBox="0 0 1440 1024" fill="none" xmlns="http://www.w3.org/2000/svg" xmlns:xlink="http://www.w3.org/1999/xlink">
	<image width="1440" height="1024" fill="#FD642D"></image>
	<image width="119.416" height="182.616" transform="matrix(0.993977 0.109593 -0.109611 0.993975 1188.6 259.382)" xlink:href="images/items/glass-bottles.png"></image>
	<image x="77" y="441" width="149" height="229" xlink:href="images/items/detergent-bottle.png"></image>
	<image x="96" y="53" width="229" height="319" xlink:href="images/items/plastic-bag.png"></image>
	<image x="420.484" y="29" width="192.213" height="179.46" transform="rotate(6.55362 420.484 29)" xlink:href="images/items/cardboard.png"></image>
	<image x="1189" y="86" width="168" height="101" xlink:href="images/items/toothpaste.png"></image>
	<image x="254" y="622.77" width="76.4435" height="187.562" transform="rotate(-11.1401 254 622.77)" xlink:href="images/items/plastic-bottle.png"></image>
	<image x="788" y="865" width="80" height="88" xlink:href="images/items/aluminum-foil.png"></image>
	<image x="393" y="834" width="292" height="134" xlink:href="images/items/broken-glass.png"></image>
	<image x="972" y="834" width="138" height="135" xlink:href="images/items/glass-jar.png"></image>
	<image x="972.475" y="40" width="119.883" height="211.967" transform="rotate(10.183 972.475 40)" xlink:href="images/items/milk-carton.png"></image>
	<image x="1256.61" y="518.335" width="78.2316" height="154.093" transform="rotate(-10.4972 1256.61 518.335)" xlink:href="images/items/soda-can.png"></image>
	<image x="724" y="61" width="85" height="152" xlink:href="images/items/food-can.png"></image>
	<image x="59" y="748" width="300" height="249.533" xlink:href="images/items/newspaper.png"></image>
	<image x="1242.97" y="745" width="159" height="206" transform="rotate(14.9005 1242.97 745)" xlink:href="images/items/chip-bag.png"></image>
</svg>