<svg width="500" height="1000" viewBox="0 0 500 1000" fill="none" xmlns="http://www.w3.org/2000/svg">
<g id="Playback" clip-path="url(#clip0)">
<g id="Group 27">
<rect id="Rectangle 78" x="108" y="550" width="95.3083" height="400" rx="47.6542" fill="white"/>
<rect id="Rectangle 79" x="297.664" y="550" width="95.3083" height="400" rx="47.6542" fill="white"/>
</g>
<g id="Group 43">
<g id="Group 42">
<g id="Group 27_2">
<path id="Vector" d="M236.802 61.1968L230.12 61.5005L230.12 68.1896L230.12 95.5993L230.12 102.927L237.44 102.592C285.446 100.396 333.444 118.288 368.24 153.084C435.662 220.507 435.662 330.282 368.24 397.704C300.818 465.126 191.043 465.126 123.621 397.704C77.5061 351.589 62.9165 285.646 79.9147 226.967L81.9182 220.051L74.9484 218.244L48.1573 211.295L41.5426 209.58L39.6684 216.152C18.979 288.698 37.115 370.154 94.143 427.181C177.801 510.839 314.06 510.839 397.718 427.182C481.376 343.524 481.376 207.264 397.718 123.607C354.872 80.7605 296.177 58.498 236.802 61.1968Z" fill="white" stroke="white" stroke-width="14"/>
</g>
<g id="Group 26">
<path id="left" d="M149.816 95.7616C143.836 89.9357 143.845 80.4999 149.837 74.6861L221.291 5.35929C230.957 -4.01903 247.462 2.64673 247.448 15.9235L247.308 154.722C247.294 167.999 230.776 174.631 221.129 165.233L149.816 95.7616Z" fill="white"/>
</g>
</g>
<g id="Group 30">
<rect id="Rectangle 78_2" x="63.2432" y="247.746" width="53.8793" height="53.8793" rx="26.9397" transform="rotate(-135 63.2432 247.746)" fill="white"/>
</g>
</g>
<g id="Group 41">
<path id="left_2" d="M298.795 274.004C305.042 280.077 305.042 289.923 298.795 295.996L224.306 368.414C214.229 378.211 197 371.272 197 357.418L197 212.582C197 198.728 214.229 191.789 224.306 201.586L298.795 274.004Z" fill="white"/>
</g>
</g>
<defs>
<clipPath id="clip0">
<rect width="500" height="1000" fill="white"/>
</clipPath>
</defs>
</svg>
