<svg width="500" height="500" viewBox="0 0 500 500" fill="none" xmlns="http://www.w3.org/2000/svg">
<path d="M250 0C112.222 0 0 112.222 0 250C0 320.556 30 387.222 81.1111 433.889L42.2222 472.778L170 494.444L148.333 366.667L104.444 410.556C60 370 33.3333 311.667 33.3333 250C33.3333 130.556 130.556 33.3333 250 33.3333C369.444 33.3333 466.667 130.556 466.667 250C466.667 369.444 369.444 466.667 250 466.667V500C387.778 500 500 387.778 500 250C500 112.222 387.778 0 250 0Z" fill="white"/>
<path d="M196.172 160.287V349.282L358.852 255.063L196.172 160.287Z" fill="white"/>
</svg>
