<svg width="108" height="84" viewBox="0 0 108 84" fill="none" xmlns="http://www.w3.org/2000/svg">
<path fill-rule="evenodd" clip-rule="evenodd" d="M8.29708 0.241699C7.87831 0.241699 7.53883 0.581176 7.53883 0.999941C7.53883 1.41871 7.87831 1.75818 8.29708 1.75818H77.2457C93.1587 1.75818 106.059 14.6583 106.059 30.5714V31.6352C106.059 47.5483 93.1587 60.4484 77.2457 60.4484H8.29708C7.87831 60.4484 7.53883 60.7879 7.53883 61.2066C7.53883 61.6254 7.87831 61.9649 8.29708 61.9649H77.2457C93.9963 61.9649 107.575 48.3858 107.575 31.6352V30.5714C107.575 13.8208 93.9963 0.241699 77.2457 0.241699H8.29708ZM23.4299 39.8488C23.726 39.5527 23.726 39.0726 23.4299 38.7765C23.1338 38.4804 22.6537 38.4804 22.3576 38.7765L1.00032 60.1338C0.408097 60.726 0.408096 61.6862 1.00032 62.2784L22.3576 83.6357C22.6537 83.9318 23.1338 83.9318 23.4299 83.6357C23.726 83.3396 23.726 82.8595 23.4299 82.5634L2.07264 61.2061L23.4299 39.8488Z" fill="white"/>
</svg>
