<svg width="500" height="1000" viewBox="0 0 500 1000" fill="none" xmlns="http://www.w3.org/2000/svg">
    <g id="Toggle" clip-path="url(#clip0)">
        <rect width="500" height="1000" />
        <g id="Frame 1">
            <g id="Group 8">
                <g id="Rectangle 46">
                    <rect x="261" y="963" width="22" height="426" transform="rotate(180 261 963)" fill="white" />
                    <rect x="261" y="963" width="22" height="426" transform="rotate(180 261 963)" fill="white" />
                </g>
                <g id="Rectangle 47">
                    <rect x="37" y="761" width="22" height="426" transform="rotate(-90 37 761)" fill="white" />
                    <rect x="37" y="761" width="22" height="426" transform="rotate(-90 37 761)" fill="white" />
                </g>
            </g>
        </g>
        <g id="Frame 2">
            <g id="Group 8_2">
                <g id="Rectangle 46_2">
                    <rect x="408.392" y="392.836" width="22" height="426" transform="rotate(135 408.392 392.836)" fill="white" />
                    <rect x="408.392" y="392.836" width="22" height="426" transform="rotate(135 408.392 392.836)" fill="white" />
                </g>
                <g id="Rectangle 47_2">
                    <rect x="107.165" y="408.392" width="22" height="426" transform="rotate(-135 107.165 408.392)" fill="white" />
                    <rect x="107.165" y="408.392" width="22" height="426" transform="rotate(-135 107.165 408.392)" fill="white" />
                </g>
            </g>
        </g>
    </g>
    <defs>
        <clipPath id="clip0">
            <rect width="500" height="1000" fill="white" />
        </clipPath>
    </defs>
</svg>