<svg width="500" height="1000" viewBox="0 0 500 1000" fill="none" xmlns="http://www.w3.org/2000/svg">
<g id="Volume">
<path id="on" d="M336.495 62.5082V437.5C336.495 442.438 333.62 446.888 329.108 448.9C324.47 450.963 319.258 450.038 315.695 446.85L206.735 350.002H136.499C115.825 350.002 99 333.178 99 312.503V187.506C99 166.831 115.825 150.006 136.499 150.006H206.735L315.683 53.1584C319.358 49.8835 324.633 49.0835 329.095 51.096C333.62 53.121 336.495 57.5833 336.495 62.5082ZM412.368 161.619C407.481 156.731 399.594 156.731 394.706 161.619C389.806 166.506 389.806 174.406 394.706 179.293C433.681 218.28 433.681 281.716 394.706 320.703C389.806 325.59 389.806 333.49 394.706 338.378C399.581 343.277 407.519 343.252 412.368 338.378C461.13 289.654 461.13 210.355 412.368 161.619ZM447.718 126.269C442.83 121.382 434.943 121.382 430.043 126.269C425.156 131.157 425.156 139.057 430.043 143.944C458.393 172.268 473.992 209.93 473.992 250.004C473.992 290.079 458.393 327.74 430.043 356.052C425.156 360.952 425.156 368.839 430.043 373.727C434.968 378.652 442.905 378.564 447.718 373.727C480.792 340.69 498.992 296.753 498.992 250.004C498.992 203.255 480.792 159.319 447.718 126.269Z" fill="white"/>
<path id="off" d="M204.622 849.999L337.398 717.673V937.5C337.398 942.438 334.514 946.888 329.986 948.9C325.332 950.963 320.102 950.038 316.527 946.85L207.206 849.999H204.622ZM421.522 578.659C416.618 573.771 408.691 573.771 403.787 578.659L337.398 644.822V562.496C337.398 557.571 334.514 553.109 329.986 551.096C325.521 549.084 320.215 549.883 316.527 553.159L207.206 649.997H136.716C115.971 649.997 99.0884 666.822 99.0884 687.497V812.499C99.0884 831.561 113.5 847.187 132 849.524L77.6781 903.662C72.774 908.55 72.774 916.45 77.6781 921.337C82.5698 926.225 90.5218 926.225 95.4134 921.337L421.522 596.334C426.426 591.446 426.426 583.546 421.522 578.659Z" fill="white"/>
</g>
</svg>
